<mxfile host="65bd71144e">
    <diagram id="t1cuCs9j5zB_prDnAczK" name="Page-1">
        <mxGraphModel dx="1783" dy="1161" grid="0" gridSize="10" guides="1" tooltips="1" connect="1" arrows="1" fold="1" page="1" pageScale="1" pageWidth="2339" pageHeight="3300" math="0" shadow="0">
            <root>
                <mxCell id="0"/>
                <mxCell id="1" parent="0"/>
                <mxCell id="4" style="edgeStyle=none;html=1;entryX=0;entryY=0.5;entryDx=0;entryDy=0;" edge="1" parent="1" source="2" target="3">
                    <mxGeometry relative="1" as="geometry"/>
                </mxCell>
                <mxCell id="13" style="edgeStyle=none;html=1;entryX=0.5;entryY=0;entryDx=0;entryDy=0;fontSize=16;" edge="1" parent="1" source="2" target="12">
                    <mxGeometry relative="1" as="geometry"/>
                </mxCell>
                <mxCell id="2" value="环境" style="whiteSpace=wrap;html=1;fontSize=21;" vertex="1" parent="1">
                    <mxGeometry x="378" y="347" width="163" height="135" as="geometry"/>
                </mxCell>
                <mxCell id="6" style="edgeStyle=none;html=1;entryX=0;entryY=0.5;entryDx=0;entryDy=0;" edge="1" parent="1" source="3" target="5">
                    <mxGeometry relative="1" as="geometry"/>
                </mxCell>
                <mxCell id="3" value="环境信息&lt;br&gt;（状态）" style="whiteSpace=wrap;html=1;fontSize=16;" vertex="1" parent="1">
                    <mxGeometry x="610" y="384.5" width="120" height="60" as="geometry"/>
                </mxCell>
                <mxCell id="8" value="" style="group" vertex="1" connectable="0" parent="1">
                    <mxGeometry x="799" y="343" width="143" height="143" as="geometry"/>
                </mxCell>
                <mxCell id="5" value="&lt;font style=&quot;font-size: 16px;&quot;&gt;智能体&lt;/font&gt;" style="ellipse;whiteSpace=wrap;html=1;" vertex="1" parent="8">
                    <mxGeometry width="143" height="143" as="geometry"/>
                </mxCell>
                <mxCell id="7" value="强化学习模型" style="whiteSpace=wrap;html=1;" vertex="1" parent="8">
                    <mxGeometry x="30" y="86" width="83" height="34" as="geometry"/>
                </mxCell>
                <mxCell id="11" style="edgeStyle=none;html=1;entryX=0.5;entryY=0;entryDx=0;entryDy=0;fontSize=16;" edge="1" parent="1" source="9" target="2">
                    <mxGeometry relative="1" as="geometry">
                        <Array as="points">
                            <mxPoint x="1054" y="296"/>
                            <mxPoint x="460" y="296"/>
                        </Array>
                    </mxGeometry>
                </mxCell>
                <mxCell id="9" value="行为（决策）" style="whiteSpace=wrap;html=1;fontSize=16;" vertex="1" parent="1">
                    <mxGeometry x="994" y="384.5" width="120" height="60" as="geometry"/>
                </mxCell>
                <mxCell id="10" style="edgeStyle=none;html=1;entryX=0;entryY=0.5;entryDx=0;entryDy=0;fontSize=16;" edge="1" parent="1" source="5" target="9">
                    <mxGeometry relative="1" as="geometry"/>
                </mxCell>
                <mxCell id="14" style="edgeStyle=none;html=1;entryX=0.5;entryY=1;entryDx=0;entryDy=0;fontSize=16;" edge="1" parent="1" source="12" target="5">
                    <mxGeometry relative="1" as="geometry">
                        <Array as="points">
                            <mxPoint x="871" y="579"/>
                        </Array>
                    </mxGeometry>
                </mxCell>
                <mxCell id="12" value="奖励值" style="whiteSpace=wrap;html=1;fontSize=16;fontStyle=1;fontColor=#FF3333;" vertex="1" parent="1">
                    <mxGeometry x="399.5" y="549" width="120" height="60" as="geometry"/>
                </mxCell>
                <mxCell id="29" style="edgeStyle=none;html=1;entryX=0;entryY=0.5;entryDx=0;entryDy=0;fontSize=16;fontColor=#FFFFFF;" edge="1" parent="1" source="16" target="28">
                    <mxGeometry relative="1" as="geometry"/>
                </mxCell>
                <mxCell id="16" value="可逆正交&lt;br&gt;网格转换" style="whiteSpace=wrap;html=1;fontSize=16;fontColor=#FFFFFF;" vertex="1" parent="1">
                    <mxGeometry x="530" y="900" width="120" height="60" as="geometry"/>
                </mxCell>
                <mxCell id="22" style="edgeStyle=none;html=1;entryX=0;entryY=0.5;entryDx=0;entryDy=0;fontSize=16;fontColor=#FFFFFF;" edge="1" parent="1" source="20" target="21">
                    <mxGeometry relative="1" as="geometry"/>
                </mxCell>
                <mxCell id="20" value="原始数据" style="rounded=1;whiteSpace=wrap;html=1;fontSize=16;fontColor=#FFFFFF;" vertex="1" parent="1">
                    <mxGeometry x="96" y="847.5" width="145" height="165" as="geometry"/>
                </mxCell>
                <mxCell id="23" style="edgeStyle=none;html=1;entryX=0;entryY=0.5;entryDx=0;entryDy=0;fontSize=16;fontColor=#FFFFFF;" edge="1" parent="1" source="21" target="16">
                    <mxGeometry relative="1" as="geometry"/>
                </mxCell>
                <mxCell id="21" value="标注交互" style="whiteSpace=wrap;html=1;fontSize=16;fontColor=#FFFFFF;" vertex="1" parent="1">
                    <mxGeometry x="322" y="900" width="120" height="60" as="geometry"/>
                </mxCell>
                <mxCell id="24" value="&lt;b&gt;人工操作：&lt;/b&gt;&lt;br&gt;&lt;div style=&quot;&quot;&gt;&lt;span style=&quot;background-color: initial;&quot;&gt;外轮廓&lt;/span&gt;&lt;/div&gt;内部空洞&lt;br&gt;剪力墙&lt;br&gt;出入口&lt;br&gt;&lt;br&gt;&lt;b&gt;自动识别：&lt;/b&gt;&lt;br&gt;柱网&lt;br&gt;柱间距&lt;br&gt;..." style="text;html=1;align=left;verticalAlign=middle;resizable=0;points=[];autosize=1;strokeColor=none;fillColor=none;fontSize=16;fontColor=#FFFFFF;" vertex="1" parent="1">
                    <mxGeometry x="344" y="977" width="98" height="204" as="geometry"/>
                </mxCell>
                <mxCell id="25" value="&lt;br&gt;需处理不规则柱网&lt;br&gt;&lt;br&gt;a：面积&lt;br&gt;s：状态（可达性、可通过性）" style="text;html=1;align=left;verticalAlign=middle;resizable=0;points=[];autosize=1;strokeColor=none;fillColor=none;fontSize=16;fontColor=#FFFFFF;" vertex="1" parent="1">
                    <mxGeometry x="519.5" y="951" width="234" height="108" as="geometry"/>
                </mxCell>
                <mxCell id="32" style="edgeStyle=none;html=1;entryX=0;entryY=0.5;entryDx=0;entryDy=0;fontSize=16;fontColor=#FFFFFF;" edge="1" parent="1" source="28" target="31">
                    <mxGeometry relative="1" as="geometry"/>
                </mxCell>
                <mxCell id="28" value="基于正交网格的&lt;br&gt;车位区域划分" style="ellipse;whiteSpace=wrap;html=1;fontSize=16;fontColor=#ffffff;fillColor=#a20025;strokeColor=#6F0000;" vertex="1" parent="1">
                    <mxGeometry x="769" y="850.5" width="159" height="159" as="geometry"/>
                </mxCell>
                <mxCell id="34" style="edgeStyle=none;html=1;fontSize=16;fontColor=#FFFFFF;" edge="1" parent="1" source="31" target="33">
                    <mxGeometry relative="1" as="geometry"/>
                </mxCell>
                <mxCell id="31" value="平面恢复" style="whiteSpace=wrap;html=1;fontSize=16;fontColor=#FFFFFF;" vertex="1" parent="1">
                    <mxGeometry x="1009" y="900" width="120" height="60" as="geometry"/>
                </mxCell>
                <mxCell id="33" value="小空间&lt;br&gt;车位排布" style="ellipse;whiteSpace=wrap;html=1;fontSize=16;fontColor=#ffffff;fillColor=#a20025;strokeColor=#6F0000;" vertex="1" parent="1">
                    <mxGeometry x="1197" y="875.5" width="109" height="109" as="geometry"/>
                </mxCell>
            </root>
        </mxGraphModel>
    </diagram>
</mxfile>